<svg height="512pt" viewBox="0 0 512.00325 512" width="512pt" xmlns="http://www.w3.org/2000/svg"><path d="m381.605469 391.800781c-24.144531 0-47.714844-9.460937-65.121094-26.238281-13.980469-13.472656-27.242187-27.84375-40.070313-41.742188-2.945312-3.195312-5.894531-6.386718-8.851562-9.570312-9.703125-10.453125-22.269531-15.820312-38.410156-16.417969-17.515625-.648437-33.132813 7.085938-43.152344 13.691407l-60.425781 40.199218c-14.199219 9.449219-31.699219 12.007813-48.007813 7.019532-16.25-4.972657-29.289062-16.808594-35.796875-32.496094l-34.355469-78.234375c-15.507812-35.859375-6.738281-66.042969 26.78125-92.339844 0 0 103.269532-100.777344 103.34375-100.851563 8.160157-7.628906 17.097657-15.109374 28.753907-15.460937 11.75-.347656 21.011719 6.632813 29.496093 13.816406 1.273438 1.082031 2.550782 1.203125 3.394532 1.117188.800781-.082031 1.953125-.433594 2.90625-1.648438 9.035156-11.539062 14.746094-20.207031 19.332031-27.175781 7.84375-11.914062 13.511719-20.523438 25.453125-23.996094 9.777344-2.839844 20.675781-1.234375 42.386719 1.96875 5.027343.742188 10.703125 1.582032 17.144531 2.480469 4.738281.664063 8.875 3.546875 11.132812 7.761719 2.261719 4.214844 2.375 9.253906.308594 13.566406-4.796875 10-8.230468 17.757812-12.25 25.359375-1.992187 3.773437-1.351562 4.90625-.699218 5.550781l42.691406 34.769532c3.722656 1.976562 7.671875 1.304687 10.011718.0625 3.011719-1.601563 3.351563-3.902344 3.414063-4.941407l-.238281-54.328125c-.027344-6.554687 4.207031-12.367187 10.453125-14.351562 6.246093-1.984375 13.054687.320312 16.816406 5.691406 0 0 104.886719 149.886719 105.019531 150.101562 23.484375 37.488282 23.039063 57.28125 10.011719 94.238282-11.582031 32.855468-31.359375 64.972656-58.78125 95.460937-14.835937 16.496094-35.933594 26.042969-59.402344 26.878907-1.097656.039062-2.195312.058593-3.289062.058593zm-154.492188-123.984375c1.054688 0 2.101563.019532 3.148438.058594 24.152343.894531 44.09375 9.632812 59.269531 25.976562 2.976562 3.207032 5.945312 6.421876 8.914062 9.636719 12.535157 13.582031 25.492188 27.625 38.84375 40.492188 12.371094 11.925781 29.308594 18.417969 46.535157 17.804687 15.269531-.546875 28.832031-6.574218 38.183593-16.96875 24.769532-27.542968 42.53125-56.265625 52.796876-85.378906 11.003906-31.21875 10.054687-40.847656-6.941407-68.035156l-76.902343-109.890625s.023437 7.1875.019531 7.394531c-.484375 12.960938-7.703125 24.382812-19.316407 30.554688-12.714843 6.757812-28.257812 6.203124-40.5625-1.457032-.539062-.335937-1.054687-.703125-1.546874-1.101562 0 0-44.339844-36.121094-44.527344-36.289063-11.753906-10.605469-14.027344-26.707031-5.929688-42.019531 1.003906-1.898438 1.988282-3.859375 2.992188-5.90625-13.269532-1.953125-23.574219-3.382812-26.851563-2.429688-1.339843.390626-5.292969 6.398438-8.78125 11.695313-4.632812 7.035156-10.972656 16.667969-20.773437 29.175781-5.816406 7.421875-14.144532 12.035156-23.457032 12.984375-9.371093.957031-18.542968-1.90625-25.8125-8.0625-5.730468-4.855469-8.253906-6.234375-9.234374-6.625-.96875.4375-3.457032 1.957031-9.050782 7.179688l-103.59375 101.101562c-.40625.394531-.835937.769531-1.285156 1.117188-23.230469 18.003906-28.375 34.042969-18.355469 57.210937 0 0 34.480469 78.523438 34.527344 78.632813 3.054687 7.4375 9.21875 13.054687 16.910156 15.40625 7.695313 2.355469 15.945313 1.148437 22.636719-3.308594l60.480469-40.238281c18.640625-12.285156 38.492187-18.710938 57.664062-18.710938zm0 0"/><path d="m390.988281 511.703125c-31.382812 0-51.796875-42.976563-57.855469-71.859375-.929687-4.421875.183594-9.023438 3.03125-12.527344 2.84375-3.503906 7.121094-5.542968 11.636719-5.542968h86.378907c4.515624 0 8.789062 2.039062 11.636718 5.542968s3.960938 8.105469 3.03125 12.527344c-6.0625 28.886719-26.476562 71.859375-57.859375 71.859375zm-23.015625-59.953125c2.402344 6.035156 5.269532 11.742188 8.386719 16.585938 5.949219 9.25 11.632813 13.390624 14.628906 13.390624 2.996094 0 8.683594-4.140624 14.632813-13.390624 3.117187-4.839844 5.984375-10.550782 8.386718-16.585938zm0 0"/></svg>