<?xml version="1.0" encoding="iso-8859-1"?>
<!-- Generator: Adobe Illustrator 19.0.0, SVG Export Plug-In . SVG Version: 6.00 Build 0)  -->
<svg version="1.1" id="Layer_1" xmlns="http://www.w3.org/2000/svg" xmlns:xlink="http://www.w3.org/1999/xlink" x="0px" y="0px"
	 viewBox="0 0 512 512" style="enable-background:new 0 0 512 512;" xml:space="preserve">
<g>
	<g>
		<path d="M469.036,282.312l-21.069-36.496c-2.164-3.748-6.958-5.032-10.705-2.869c-3.748,2.164-5.033,6.957-2.869,10.705
			l15.787,27.348h-48.113l-18.508-32.061c-0.198-0.343-0.425-0.661-0.668-0.966l24.112-41.767l13.514,23.408
			c2.164,3.749,6.956,5.033,10.705,2.868c3.748-2.164,5.032-6.957,2.868-10.705l-15.92-27.577
			c-2.324-4.025-6.654-6.525-11.301-6.525h-14.884v-46.369c0-7.202-5.859-13.061-13.061-13.061h-15.086V97.043
			c23.214-3.761,40.996-23.947,40.996-48.207C404.835,21.907,382.929,0,356.002,0c-26.926,0-48.832,21.907-48.832,48.835
			c0,4.328,3.509,7.837,7.837,7.837c4.328,0,7.837-3.509,7.837-7.837c0-18.286,14.875-33.162,33.159-33.162
			S389.16,30.55,389.16,48.835s-14.875,33.163-33.159,33.163c-4.328,0-7.837,3.509-7.837,7.837v38.409h-15.086
			c-7.202,0-13.061,5.859-13.061,13.061v46.369h-14.883c-4.647,0-8.978,2.5-11.301,6.525l-50.866,88.11
			c-2.324,4.025-2.324,9.025,0,13.049l50.866,88.111c2.324,4.025,6.654,6.525,11.301,6.525h101.733c4.647,0,8.978-2.5,11.301-6.525
			l50.867-88.11C471.359,291.335,471.359,286.336,469.036,282.312z M388.494,288.836l-16.246,28.142h-32.492l-16.246-28.142
			l16.246-28.142h32.492L388.494,288.836z M335.692,143.918h40.62v15.602h-40.62V143.918z M335.692,175.197h40.62v12.478h-40.62
			V175.197z M390.555,203.349l-24.057,41.672h-21.16l-24.057-41.672H390.555z M304.918,206.351l24.095,41.74
			c-0.206,0.268-0.396,0.551-0.567,0.848l-18.508,32.061h-48.112L304.918,206.351z M304.917,371.319l-43.094-74.648h48.112
			l18.508,32.061c0.171,0.298,0.363,0.58,0.567,0.848L304.917,371.319z M321.281,374.322l24.057-41.672h21.16l24.057,41.672H321.281
			z M407.003,371.465l-24.112-41.767c0.242-0.305,0.47-0.624,0.668-0.967l18.508-32.061h48.112L407.003,371.465z"/>
	</g>
</g>
<g>
	<g>
		<path d="M156,122.005c-26.926,0-48.832,21.907-48.832,48.835c0,4.327,3.509,7.836,7.837,7.836c4.328,0,7.837-3.509,7.837-7.837
			c0-18.286,14.875-33.162,33.159-33.162s33.159,14.876,33.159,33.161c-0.001,4.237-0.787,8.361-2.336,12.258
			c-1.6,4.022,0.365,8.579,4.386,10.178c0.95,0.377,1.93,0.557,2.893,0.557c3.116,0,6.064-1.871,7.285-4.942
			c2.286-5.747,3.445-11.82,3.445-18.049C204.832,143.913,182.926,122.005,156,122.005z"/>
	</g>
</g>
<g>
	<g>
		<path d="M269.03,404.315l-50.861-88.11c-2.323-4.026-6.654-6.526-11.302-6.526h-14.884v-46.369
			c0-7.203-5.859-13.061-13.061-13.061h-15.086v-31.205c5.872-0.952,11.54-2.97,16.694-5.969c3.741-2.177,5.008-6.975,2.831-10.715
			c-2.177-3.741-6.976-5.009-10.715-2.831c-5.029,2.927-10.784,4.474-16.646,4.474c-4.328,0-7.837,3.509-7.837,7.837v38.409h-15.086
			c-7.202,0-13.061,5.859-13.061,13.061v46.369h-14.884c-4.648,0-8.979,2.5-11.301,6.525l-50.867,88.111
			c-2.323,4.025-2.323,9.025,0,13.049l50.867,88.111c2.324,4.025,6.654,6.525,11.301,6.525h101.733c4.647,0,8.978-2.5,11.301-6.525
			l9.052-15.679c2.164-3.748,0.88-8.541-2.869-10.705c-3.748-2.164-8.542-0.88-10.705,2.869l-6.644,11.51l-24.112-41.767
			c0.242-0.304,0.47-0.623,0.668-0.966l18.508-32.061h48.113l-22.66,39.251c-2.164,3.748-0.879,8.541,2.869,10.705
			c3.746,2.162,8.541,0.879,10.705-2.869l27.939-48.399C271.353,413.341,271.353,408.341,269.03,404.315z M135.689,265.922h40.62
			v15.602h-40.62V265.922z M135.689,297.201h40.62v12.478h-40.62V297.201z M190.552,325.353l-24.057,41.672h-21.159l-24.057-41.672
			H190.552z M104.915,328.356l24.095,41.738c-0.206,0.268-0.396,0.551-0.568,0.849l-18.508,32.06H61.82L104.915,328.356z
			 M104.915,493.323L61.82,418.676h48.113l18.508,32.061c0.172,0.298,0.363,0.581,0.568,0.849L104.915,493.323z M190.552,496.327
			h-69.275l24.057-41.672h21.16L190.552,496.327z M202.065,403.003l-0.261-0.452c-2.165-3.748-6.957-5.032-10.705-2.867
			c-3.748,2.164-5.032,6.957-2.867,10.705l0.26,0.451l-16.246,28.142h-32.492l-16.246-28.142l16.246-28.142h32.492l2.713,4.699
			c2.165,3.749,6.958,5.033,10.705,2.868c3.748-2.164,5.032-6.957,2.868-10.705l-4.975-8.617c-0.197-0.343-0.425-0.661-0.668-0.966
			l24.112-41.767l43.178,74.793H202.065z"/>
	</g>
</g>
<g>
</g>
<g>
</g>
<g>
</g>
<g>
</g>
<g>
</g>
<g>
</g>
<g>
</g>
<g>
</g>
<g>
</g>
<g>
</g>
<g>
</g>
<g>
</g>
<g>
</g>
<g>
</g>
<g>
</g>
</svg>
