<?xml version="1.0" encoding="utf-8"?>
<!-- Svg Vector Icons : http://www.onlinewebfonts.com/icon -->
<!DOCTYPE svg PUBLIC "-//W3C//DTD SVG 1.1//EN" "http://www.w3.org/Graphics/SVG/1.1/DTD/svg11.dtd">
<svg version="1.1" xmlns="http://www.w3.org/2000/svg" xmlns:xlink="http://www.w3.org/1999/xlink" x="0px" y="0px" viewBox="0 0 1000 1000" enable-background="new 0 0 1000 1000" xml:space="preserve">
<metadata> Svg Vector Icons : http://www.onlinewebfonts.com/icon </metadata>
<g><g><path d="M867.5,132.5h-735C64.8,132.5,10,187.3,10,255v490c0,67.7,54.8,122.5,122.5,122.5h735c67.7,0,122.5-54.8,122.5-122.5V255C990,187.3,935.2,132.5,867.5,132.5z M665.9,459.4l259.3-222.2c1.8,5.7,3.6,11.5,3.6,17.8v490c0,4.2-1.6,8-2.5,12L665.9,459.4z M867.5,193.8c4.1,0,7.7,1.6,11.5,2.3L500,520.9L121,196.1c3.8-0.8,7.4-2.3,11.5-2.3H867.5z M73.7,757c-0.8-4-2.4-7.7-2.4-12V255c0-6.3,1.8-12.1,3.6-17.8l259.2,222.2L73.7,757z M132.5,806.3c-6.2,0-11.8-1.8-17.5-3.5l265.6-303.5l99.5,85.2c5.7,5,12.8,7.4,19.9,7.4s14.2-2.5,19.9-7.4l99.5-85.2L885,802.7c-5.6,1.7-11.2,3.5-17.5,3.5H132.5z"/></g><g></g><g></g><g></g><g></g><g></g><g></g><g></g><g></g><g></g><g></g><g></g><g></g><g></g><g></g><g></g></g>
</svg>