<svg xmlns="http://www.w3.org/2000/svg" viewBox="0 0 16 16">
    <path d="M 7.5 1 C 6.1207779 1 4.8447445 1.4385404 3.7929688 2.1738281 C 3.6187983 2.2955892 3.4521138 2.424781 3.2910156 2.5625 C 3.2896205 2.5636905 3.2885035 2.5652146 3.2871094 2.5664062 C 3.1396132 2.6927117 2.9988594 2.8261115 2.8632812 2.9648438 C 2.8438885 2.9845774 2.8238326 3.0034626 2.8046875 3.0234375 C 2.7586982 3.0717001 2.708558 3.1163736 2.6640625 3.1660156 A 0.50070903 0.50070903 0 0 0 2.5996094 3.2578125 C 2.3947297 3.4928956 2.1997507 3.737725 2.03125 4 L 3.0371094 4 L 3.2617188 4 C 3.3741976 3.8637276 3.500497 3.7386198 3.6269531 3.6132812 C 3.6848736 3.5554127 3.7403919 3.4947128 3.8007812 3.4394531 C 3.8034954 3.4369695 3.8058747 3.4341188 3.8085938 3.4316406 C 3.965542 3.2898203 4.1321307 3.1580358 4.3027344 3.0351562 C 5.2029209 2.3854976 6.3023159 2 7.5 2 C 10.543833 2 13 4.456167 13 7.5 C 13 10.543833 10.543833 13 7.5 13 C 6.3041917 13 5.2047847 12.616591 4.3046875 11.96875 C 4.1248418 11.839732 3.9527015 11.700007 3.7890625 11.550781 C 3.7477252 11.512798 3.7101047 11.470855 3.6699219 11.431641 C 3.52744 11.293512 3.3878143 11.15277 3.2617188 11 L 3.1074219 11 A 0.50005 0.50005 0 0 0 2.9492188 11 L 2.03125 11 C 2.2014935 11.264988 2.3965783 11.511182 2.6015625 11.748047 A 0.50005 0.50005 0 0 0 2.6640625 11.833984 C 2.6929868 11.866225 2.7263039 11.894119 2.7558594 11.925781 C 2.8293609 12.004819 2.907056 12.079001 2.984375 12.154297 C 3.0568348 12.224642 3.1274585 12.296312 3.203125 12.363281 C 3.289674 12.440043 3.3800362 12.511856 3.4707031 12.583984 C 3.5535079 12.649817 3.6346879 12.717464 3.7207031 12.779297 C 3.7407249 12.79368 3.7590992 12.810057 3.7792969 12.824219 L 3.7832031 12.820312 C 4.8368646 13.559675 6.1165595 14 7.5 14 C 11.084167 14 14 11.084167 14 7.5 C 14 3.915833 11.084167 1 7.5 1 z M 3 5 L 0.5 7.5 L 3 10 L 3 8 L 10 8 L 10 7 L 3 7 L 3 5 z"/>
</svg>
