<?xml version="1.0" encoding="utf-8"?>
<!-- Svg Vector Icons : http://www.onlinewebfonts.com/icon -->
<!DOCTYPE svg PUBLIC "-//W3C//DTD SVG 1.1//EN" "http://www.w3.org/Graphics/SVG/1.1/DTD/svg11.dtd">
<svg version="1.1" xmlns="http://www.w3.org/2000/svg" xmlns:xlink="http://www.w3.org/1999/xlink" x="0px" y="0px" viewBox="0 0 1000 1000" enable-background="new 0 0 1000 1000" xml:space="preserve">
<metadata> Svg Vector Icons : http://www.onlinewebfonts.com/icon </metadata>
<g><g transform="translate(0.000000,511.000000) scale(0.100000,-0.100000)"><path d="M4669.6,4997.9c-1022-103.2-1862.2-1009.6-1932.4-2089.4l-14.4-202.3h-559.5c-320,0-592.5-10.3-635.9-20.6c-41.3-12.4-95-45.4-119.7-76.4c-41.3-53.7-41.3-57.8-41.3-3658.4c0-3383.8,4.1-3606.8,37.2-3648.1c18.6-24.8,55.8-55.7,80.5-68.1c66.1-33,6961.7-33,7034,2.1c123.9,55.7,115.6-210.6,115.6,3716.2c0,3478.8,0,3598.6-37.1,3650.2c-68.1,90.8-138.3,101.2-749.4,101.2l-569.8,2.1l-14.5,202.3c-64,966.2-743.2,1808.6-1645.4,2035.7C5390.2,5002,4956.6,5026.8,4669.6,4997.9z M5516.1,4531.3c88.8-18.6,245.7-76.4,369.6-136.3c187.9-90.8,239.5-125.9,404.6-291.1c212.6-212.7,336.5-404.7,427.4-658.6c66.1-189.9,119.7-466.6,119.7-627.6v-111.5H4995.8H3156.3l12.4,192c20.6,307.6,115.6,623.5,264.3,877.4c39.2,64,159,206.5,266.3,315.9c177.6,179.6,218.8,210.6,412.9,303.5c119.7,55.8,264.3,113.6,320,128C4682,4585,5241.5,4589.1,5516.1,4531.3z M2642.2,2260.3l86.7-10.3v-299.4v-297.3h216.8h216.8v297.3c0,266.3,4.1,299.4,37.2,307.6c31,10.3,3509.8,6.2,3602.7-2.1c31-4.1,35.1-33,35.1-303.5v-299.4h216.8H7271v297.3v297.3l57.8,12.4c31,6.2,239.5,8.3,462.5,6.2l408.8-4.1v-3307.4v-3309.5H4999.9H1799.9v3309.5v3307.4l377.8,4.1C2384.1,2270.6,2592.7,2266.5,2642.2,2260.3z"/><path d="M4669.6-215.2v-609.1h-557.4h-557.4V-1041v-216.8h557.4h557.4v-567.8v-567.8h216.8h216.8v567.8v567.8h609.1h609.1v216.8v216.8h-609.1h-609.1v609.1v609.1h-216.8h-216.8V-215.2z"/></g></g>
</svg>