<?xml version="1.0" encoding="utf-8"?>
<!-- Svg Vector Icons : http://www.onlinewebfonts.com/icon -->
<!DOCTYPE svg PUBLIC "-//W3C//DTD SVG 1.1//EN" "http://www.w3.org/Graphics/SVG/1.1/DTD/svg11.dtd">
<svg version="1.1" xmlns="http://www.w3.org/2000/svg" xmlns:xlink="http://www.w3.org/1999/xlink" x="0px" y="0px" viewBox="0 0 1000 1000" enable-background="new 0 0 1000 1000" xml:space="preserve">
<metadata> Svg Vector Icons : http://www.onlinewebfonts.com/icon </metadata>
<g><path d="M107.8,263.8v633.9c0,51,0,51.7,0,92.3h784.5c0-50,0-41.3,0-92.3V263.8H107.8z"/><path d="M571.8,10H433.4c-76.5,0-138.4,62-138.4,138.4V333c0,7.9,1.1,15.5,2.3,23.1h43.8V148.4c0-51,41.3-92.3,92.3-92.3h138.4c51,0,92.3,41.3,92.3,92.3v207.7h43.8c1.3-7.5,2.3-15.2,2.3-23.1l-5.2-184.6C705.1,72,648.3,10,571.8,10z"/><path d="M315.4,333c-38.2,0-69.2,31-69.2,69.2c0,38.2,31,69.2,69.2,69.2s69.2-31,69.2-69.2C384.6,364,353.7,333,315.4,333z M315.4,425.3c-12.8,0-23.1-10.3-23.1-23.1c0-12.8,10.3-23.1,23.1-23.1c12.8,0,23.1,10.3,23.1,23.1C338.5,415,328.2,425.3,315.4,425.3z"/><path d="M684.6,333c-38.2,0-69.2,31-69.2,69.2c0,38.2,31,69.2,69.2,69.2c38.2,0,69.2-31,69.2-69.2C753.8,364,722.8,333,684.6,333z M684.6,425.3c-12.8,0-23.1-10.3-23.1-23.1c0-12.8,10.3-23.1,23.1-23.1c12.8,0,23.1,10.3,23.1,23.1C707.7,415,697.3,425.3,684.6,425.3z"/></g>
</svg>